HIERARCHY
ROOT Hips
{
	OFFSET 0.000000 77.714516 0.000000
	CHANNELS 6 Xposition Yposition Zposition Xrotation Yrotation Zrotation 
	JOINT Spine
	{
		OFFSET 0.000000 14.685699 -1.734700
		CHANNELS 3 Xrotation Yrotation Zrotation
		JOINT Spine1
		{
			OFFSET 0.000000 12.238081 -1.445592
			CHANNELS 3 Xrotation Yrotation Zrotation
			JOINT Spine1_split
			{
				OFFSET 0.000000 12.238081 -1.445592
				CHANNELS 3 Xrotation Yrotation Zrotation
				JOINT Spine2
				{
					OFFSET 0.000000 12.238081 -1.445592
					CHANNELS 3 Xrotation Yrotation Zrotation
					JOINT Neck
					{
						OFFSET 0.000000 22.028564 -2.602067
						CHANNELS 3 Xrotation Yrotation Zrotation
						JOINT Head
						{
							OFFSET 0.000000 7.772293 1.167700
							CHANNELS 3 Xrotation Yrotation Zrotation
							JOINT HeadTop_End
							{
								OFFSET 0.000000 26.518204 3.983900
								CHANNELS 3 Xrotation Yrotation Zrotation
								End Site
								{
									OFFSET 0.000000 0.000000 0.000000
								}
							}
						}
					}
					JOINT LeftShoulder
					{
						OFFSET 5.823300 9.256668 -1.291890
						CHANNELS 3 Xrotation Yrotation Zrotation
						JOINT LeftShoulder_split
						{
							OFFSET 5.823300 9.256668 -1.291890
							CHANNELS 3 Xrotation Yrotation Zrotation
							JOINT LeftArm
							{
								OFFSET 23.544209 -6.614426 0.036475
								CHANNELS 3 Xrotation Yrotation Zrotation
								JOINT LeftForeArm
								{
									OFFSET 22.756695 0.000000 -0.000001
									CHANNELS 3 Xrotation Yrotation Zrotation
									JOINT LeftHand
									{
										OFFSET 32.238304 0.000000 -0.000001
										CHANNELS 3 Xrotation Yrotation Zrotation
										JOINT LeftHandThumb1
										{
											OFFSET 4.391930 -2.771759 4.066533
											CHANNELS 3 Xrotation Yrotation Zrotation
											JOINT LeftHandThumb2
											{
												OFFSET 4.087418 -2.359879 2.359872
												CHANNELS 3 Xrotation Yrotation Zrotation
												JOINT LeftHandThumb3
												{
													OFFSET 4.044945 -2.335342 2.335349
													CHANNELS 3 Xrotation Yrotation Zrotation
													JOINT LeftHandThumb4
													{
														OFFSET 3.242561 -1.872101 1.872095
														CHANNELS 3 Xrotation Yrotation Zrotation
														End Site
														{
															OFFSET 0.000000 0.000000 0.000000
														}
													}
												}
											}
										}
										JOINT LeftHandIndex1
										{
											OFFSET 13.080666 -0.495590 3.860911
											CHANNELS 3 Xrotation Yrotation Zrotation
											JOINT LeftHandIndex2
											{
												OFFSET 4.467804 0.000000 0.000000
												CHANNELS 3 Xrotation Yrotation Zrotation
												JOINT LeftHandIndex3
												{
													OFFSET 4.434097 0.000000 0.000000
													CHANNELS 3 Xrotation Yrotation Zrotation
													JOINT LeftHandIndex4
													{
														OFFSET 3.589699 0.000000 0.000000
														CHANNELS 3 Xrotation Yrotation Zrotation
														End Site
														{
															OFFSET 0.000000 0.000000 0.000000
														}
													}
												}
											}
										}
										JOINT LeftHandMiddle1
										{
											OFFSET 12.178093 0.000000 0.000000
											CHANNELS 3 Xrotation Yrotation Zrotation
											JOINT LeftHandMiddle2
											{
												OFFSET 5.491508 0.000000 0.000000
												CHANNELS 3 Xrotation Yrotation Zrotation
												JOINT LeftHandMiddle3
												{
													OFFSET 5.202805 0.000000 0.000000
													CHANNELS 3 Xrotation Yrotation Zrotation
													JOINT LeftHandMiddle4
													{
														OFFSET 4.456505 0.000000 0.000000
														CHANNELS 3 Xrotation Yrotation Zrotation
														End Site
														{
															OFFSET 0.000000 0.000000 0.000000
														}
													}
												}
											}
										}
										JOINT LeftHandRing1
										{
											OFFSET 11.850945 -0.053970 -3.835439
											CHANNELS 3 Xrotation Yrotation Zrotation
											JOINT LeftHandRing2
											{
												OFFSET 4.691414 0.000000 0.000000
												CHANNELS 3 Xrotation Yrotation Zrotation
												JOINT LeftHandRing3
												{
													OFFSET 4.518303 0.000000 0.000000
													CHANNELS 3 Xrotation Yrotation Zrotation
													JOINT LeftHandRing4
													{
														OFFSET 3.568130 0.000000 0.000000
														CHANNELS 3 Xrotation Yrotation Zrotation
														End Site
														{
															OFFSET 0.000000 0.000000 0.000000
														}
													}
												}
											}
										}
										JOINT LeftHandPinky1
										{
											OFFSET 10.491814 -0.458572 -7.033705
											CHANNELS 3 Xrotation Yrotation Zrotation
											JOINT LeftHandPinky2
											{
												OFFSET 4.452301 0.000000 0.000000
												CHANNELS 3 Xrotation Yrotation Zrotation
												JOINT LeftHandPinky3
												{
													OFFSET 3.536598 0.000000 0.000000
													CHANNELS 3 Xrotation Yrotation Zrotation
													JOINT LeftHandPinky4
													{
														OFFSET 2.823502 0.000000 0.000000
														CHANNELS 3 Xrotation Yrotation Zrotation
														End Site
														{
															OFFSET 0.000000 0.000000 0.000000
														}
													}
												}
											}
										}
									}
								}
							}
						}
					}
					JOINT RightShoulder
					{
						OFFSET -5.823300 9.256676 -1.310167
						CHANNELS 3 Xrotation Yrotation Zrotation
						JOINT RightShoulder_split
						{
							OFFSET -5.823300 9.256676 -1.310167
							CHANNELS 3 Xrotation Yrotation Zrotation
							JOINT RightArm
							{
								OFFSET -23.544205 -6.614441 -0.036501
								CHANNELS 3 Xrotation Yrotation Zrotation
								JOINT RightForeArm
								{
									OFFSET -22.759399 0.000000 0.000001
									CHANNELS 3 Xrotation Yrotation Zrotation
									JOINT RightHand
									{
										OFFSET -32.238106 0.000000 0.000001
										CHANNELS 3 Xrotation Yrotation Zrotation
										JOINT RightHandThumb1
										{
											OFFSET -4.492897 -2.767944 4.026622
											CHANNELS 3 Xrotation Yrotation Zrotation
											JOINT RightHandThumb2
											{
												OFFSET -4.113335 -2.374832 2.374833
												CHANNELS 3 Xrotation Yrotation Zrotation
												JOINT RightHandThumb3
												{
													OFFSET -4.066299 -2.347672 2.347677
													CHANNELS 3 Xrotation Yrotation Zrotation
													JOINT RightHandThumb4
													{
														OFFSET -3.138756 -1.812164 1.812160
														CHANNELS 3 Xrotation Yrotation Zrotation
														End Site
														{
															OFFSET 0.000000 0.000000 0.000000
														}
													}
												}
											}
										}
										JOINT RightHandIndex1
										{
											OFFSET -12.930191 -0.141510 3.700550
											CHANNELS 3 Xrotation Yrotation Zrotation
											JOINT RightHandIndex2
											{
												OFFSET -4.764015 0.000000 0.000000
												CHANNELS 3 Xrotation Yrotation Zrotation
												JOINT RightHandIndex3
												{
													OFFSET -4.419807 0.000000 0.000000
													CHANNELS 3 Xrotation Yrotation Zrotation
													JOINT RightHandIndex4
													{
														OFFSET -3.701851 0.000000 0.000000
														CHANNELS 3 Xrotation Yrotation Zrotation
														End Site
														{
															OFFSET 0.000000 0.000000 0.000000
														}
													}
												}
											}
										}
										JOINT RightHandMiddle1
										{
											OFFSET -12.168388 0.000000 0.000001
											CHANNELS 3 Xrotation Yrotation Zrotation
											JOINT RightHandMiddle2
											{
												OFFSET -5.385834 0.000000 0.000000
												CHANNELS 3 Xrotation Yrotation Zrotation
												JOINT RightHandMiddle3
												{
													OFFSET -5.321609 0.000000 0.000000
													CHANNELS 3 Xrotation Yrotation Zrotation
													JOINT RightHandMiddle4
													{
														OFFSET -4.501015 0.000000 0.000000
														CHANNELS 3 Xrotation Yrotation Zrotation
														End Site
														{
															OFFSET 0.000000 0.000000 0.000000
														}
													}
												}
											}
										}
										JOINT RightHandRing1
										{
											OFFSET -11.815239 0.302551 -3.905540
											CHANNELS 3 Xrotation Yrotation Zrotation
											JOINT RightHandRing2
											{
												OFFSET -4.583313 0.000000 0.000000
												CHANNELS 3 Xrotation Yrotation Zrotation
												JOINT RightHandRing3
												{
													OFFSET -4.612907 0.000000 0.000000
													CHANNELS 3 Xrotation Yrotation Zrotation
													JOINT RightHandRing4
													{
														OFFSET -3.358940 0.000000 0.000000
														CHANNELS 3 Xrotation Yrotation Zrotation
														End Site
														{
															OFFSET 0.000000 0.000000 0.000000
														}
													}
												}
											}
										}
										JOINT RightHandPinky1
										{
											OFFSET -10.511444 -0.263382 -6.996516
											CHANNELS 3 Xrotation Yrotation Zrotation
											JOINT RightHandPinky2
											{
												OFFSET -4.477509 0.000000 0.000000
												CHANNELS 3 Xrotation Yrotation Zrotation
												JOINT RightHandPinky3
												{
													OFFSET -3.497902 0.000000 0.000000
													CHANNELS 3 Xrotation Yrotation Zrotation
													JOINT RightHandPinky4
													{
														OFFSET -2.797302 0.000000 0.000000
														CHANNELS 3 Xrotation Yrotation Zrotation
														End Site
														{
															OFFSET 0.000000 0.000000 0.000000
														}
													}
												}
											}
										}
									}
								}
							}
						}
					}
				}
			}
		}
	}
	JOINT LeftUpLeg
	{
		OFFSET 13.580900 -8.149200 -1.796100
		CHANNELS 3 Xrotation Yrotation Zrotation
		JOINT LeftLeg
		{
			OFFSET 1.779603 -35.946629 -2.676069
			CHANNELS 3 Xrotation Yrotation Zrotation
			JOINT LeftFoot
			{
				OFFSET -1.779600 -26.652353 -2.057156
				CHANNELS 3 Xrotation Yrotation Zrotation
				JOINT LeftToeBase
				{
					OFFSET -1.192457 -6.581663 13.403625
					CHANNELS 3 Xrotation Yrotation Zrotation
					JOINT LeftToe_End
					{
						OFFSET -0.351332 -0.163919 5.937958
						CHANNELS 3 Xrotation Yrotation Zrotation
						End Site
						{
							OFFSET 0.000000 0.000000 0.000000
						}
					}
				}
			}
		}
	}
	JOINT RightUpLeg
	{
		OFFSET -13.580900 -8.149200 -2.255300
		CHANNELS 3 Xrotation Yrotation Zrotation
		JOINT RightLeg
		{
			OFFSET -1.779582 -35.946686 -2.316831
			CHANNELS 3 Xrotation Yrotation Zrotation
			JOINT RightFoot
			{
				OFFSET 1.779588 -26.652205 -2.090130
				CHANNELS 3 Xrotation Yrotation Zrotation
				JOINT RightToeBase
				{
					OFFSET 1.192391 -6.582412 13.372187
					CHANNELS 3 Xrotation Yrotation Zrotation
					JOINT RightToe_End
					{
						OFFSET 0.351304 -0.164246 5.913598
						CHANNELS 3 Xrotation Yrotation Zrotation
						End Site
						{
							OFFSET 0.000000 0.000000 0.000000
						}
					}
				}
			}
		}
	}
}
MOTION
Frames: 4
Frame Time: 0.016667
-24.930878 52.829361 20.905371 -8.171918 -0.255616 -7.281554 12.491572 0.266138 1.887906 1.936096 0.190788 0.500375 0.000000 0.000000 0.000000 1.936995 0.190392 0.487213 -3.006347 -1.502566 6.528662 -9.166082 -5.695075 12.349373 0.000000 0.000000 0.000001 0.006992 1.554392 2.576196 0.000000 0.000000 0.000000 -14.758712 -21.698517 -76.449495 -0.000000 -59.290967 -0.000001 41.219092 6.084299 33.639945 -0.863931 5.936908 -5.345115 7.898116 22.842941 -2.327917 -4.991299 -19.076034 6.158813 -0.000003 -0.000007 -0.000001 0.431278 -3.123365 9.513721 0.000003 -0.000008 0.000019 0.000634 -0.093577 0.775517 -0.000000 0.000001 0.000000 -0.152240 0.720355 7.535772 0.732195 3.094733 -26.616216 0.098627 1.163673 -9.689939 -0.000002 0.000000 0.000001 0.015574 2.446113 -0.223942 0.158241 1.470527 -12.281996 0.157001 1.464917 -12.234107 0.000003 0.000001 -0.000000 -1.263477 2.728213 18.559552 0.339712 -1.920101 -18.499007 0.027594 0.617097 -5.120502 -0.000000 0.000000 0.000000 0.109336 -7.855598 4.330383 0.000000 0.000000 0.000000 -14.426316 19.753892 75.882008 -0.000014 71.784510 -0.000005 38.813185 -14.499155 2.524489 -6.167839 9.584563 -15.300655 9.462806 -6.573025 2.474958 -8.902679 4.685692 -4.284909 0.000003 -0.000003 -0.000003 0.734214 3.759959 -14.143311 0.000033 -0.019203 0.157619 0.052744 0.856607 -7.047443 0.000000 -0.000000 0.000000 1.376685 5.703237 -16.085504 0.007572 -0.325092 2.668622 0.076701 -1.032054 8.500629 -0.000002 0.000000 -0.000000 0.468724 3.342261 -9.533000 0.009945 -0.372385 3.057252 0.150081 -1.439737 11.901915 0.000001 -0.000001 -0.000000 -1.673480 -5.118411 -15.899973 -0.000002 -0.000543 0.004445 0.082571 -1.070539 8.820285 -0.000000 0.000000 -0.000001 -70.311156 -6.964956 11.946917 86.068771 -4.798607 2.030803 -8.088355 0.604547 -3.996715 -2.765927 -0.000001 0.000000 -0.000000 0.000001 -0.000000 -63.539064 -8.053218 -11.847652 82.367150 -1.103219 2.313639 -12.289529 -0.350327 1.085366 0.590283 -0.000004 -0.000002 -0.000000 0.000000 -0.000000 
-24.825966 52.843689 20.873055 -8.264314 -0.295872 -7.481159 12.527912 0.172228 1.901760 1.952206 0.169800 0.505145 0.000000 0.000000 0.000000 1.953107 0.169475 0.492340 -2.891755 -1.507201 6.556226 -9.194380 -5.735086 12.388105 -0.000000 -0.000000 -0.000001 0.007073 1.539028 2.601848 0.000000 0.000000 0.000000 -14.666313 -21.698442 -76.441660 0.000018 -59.414299 0.000016 41.099099 6.221715 33.900134 -0.631296 6.098497 -5.248210 7.944523 22.978093 -2.361523 -4.904051 -18.413869 6.041290 0.000000 -0.000005 -0.000001 0.391751 -3.046773 8.748260 -0.000002 -0.000000 -0.000023 0.000933 -0.113692 0.942126 0.000002 -0.000000 -0.000001 -0.144532 0.818749 6.843009 0.732506 3.095343 -26.621810 0.091253 1.119582 -9.319408 0.000000 -0.000001 0.000000 0.035753 2.460814 -0.708579 0.157586 1.467582 -12.256853 0.157007 1.464921 -12.234107 0.000000 0.000001 -0.000001 -1.217462 2.716795 18.103024 0.336426 -1.929887 -18.413758 0.028256 0.624488 -5.182026 0.000001 -0.000000 -0.000000 0.094473 -7.825825 4.164772 0.000000 0.000000 0.000000 -14.705638 19.927186 76.101203 -0.000081 70.925873 0.000069 39.071336 -14.160609 2.004816 -6.148732 9.554063 -15.332608 9.514618 -6.589900 2.498280 -8.990351 4.908308 -4.287511 -0.000000 0.000003 0.000002 0.605736 3.460889 -12.602600 -0.000002 -0.006894 0.056469 0.055991 0.882383 -7.260483 -0.000002 -0.000001 -0.000000 1.344941 5.659712 -15.816135 0.009030 -0.354825 2.912974 0.073918 -1.013294 8.345072 0.000000 -0.000001 0.000000 0.449913 3.190573 -9.738123 0.009968 -0.372802 3.060753 0.150309 -1.440859 11.911033 -0.000003 0.000001 -0.000003 -1.668392 -4.439094 -17.376445 0.000013 -0.000352 0.002869 0.088586 -1.108709 9.137516 0.000001 0.000001 -0.000000 -70.265639 -7.100992 11.962633 86.158759 -4.758992 2.084776 -8.087903 0.610008 -4.032650 -2.787838 0.000000 0.000004 -0.000000 0.000001 0.000000 -63.357914 -8.125467 -11.721737 82.225307 -1.388968 2.349660 -12.336199 -0.370518 1.194188 0.723301 0.000008 0.000000 -0.000000 0.000002 -0.000000 
-24.721237 52.851929 20.835102 -8.345660 -0.330938 -7.679810 12.552139 0.093155 1.941374 1.962919 0.151559 0.510302 0.000000 0.000000 0.000000 1.963849 0.151265 0.497770 -2.768432 -1.505179 6.530201 -9.186798 -5.806174 12.412448 0.000000 -0.000001 0.000000 0.010806 1.514969 2.577148 0.000000 0.000000 0.000000 -14.596104 -21.734213 -76.391513 -0.000019 -59.501063 -0.000023 40.988959 6.335952 34.187433 -0.396542 6.258089 -5.137510 7.981764 23.086118 -2.388468 -4.797229 -17.638378 5.904551 -0.000004 -0.000005 -0.000001 0.343427 -2.944404 7.810579 -0.000002 -0.000010 0.000003 0.001258 -0.132029 1.094160 0.000000 -0.000000 -0.000001 -0.133212 0.922295 6.053117 0.734431 3.099210 -26.657569 0.082756 1.066549 -8.874258 -0.000000 -0.000001 0.000003 0.059191 2.481118 -1.276939 0.156924 1.464526 -12.230877 0.157008 1.464903 -12.234120 -0.000002 0.000000 0.000000 -1.166657 2.690780 17.633178 0.335295 -1.933324 -18.383608 0.028686 0.629224 -5.221463 -0.000001 0.000000 -0.000000 0.080643 -7.826696 4.024005 0.000000 0.000000 0.000000 -14.978272 20.057308 76.305842 -0.000018 70.094994 0.000020 39.104428 -13.736558 1.363026 -6.127179 9.507976 -15.351772 9.602596 -6.618404 2.537864 -9.058804 5.082334 -4.289524 -0.000001 -0.000002 -0.000002 0.509003 3.230417 -11.228537 0.000000 0.000000 0.000017 0.058781 0.904039 -7.439823 -0.000001 0.000001 0.000001 1.308947 5.622535 -15.455402 0.010257 -0.378237 3.105292 0.071667 -0.997795 8.216446 0.000001 0.000000 0.000000 0.422812 3.021901 -9.816502 0.010003 -0.373480 3.066127 0.149819 -1.438478 11.891242 -0.000001 -0.000001 0.000001 -1.603873 -3.768549 -18.578296 -0.000004 -0.000115 0.000856 0.094972 -1.147620 9.461191 0.000001 0.000000 0.000001 -70.241379 -7.247904 11.967910 86.244225 -4.735179 2.138174 -8.048609 0.617859 -4.100111 -2.831099 -0.000002 0.000000 0.000000 0.000000 0.000000 -63.212854 -8.194576 -11.576162 82.147047 -1.864160 2.374755 -12.500013 -0.400242 1.336737 0.947557 -0.000007 0.000001 -0.000000 -0.000001 -0.000000 
-24.622089 52.849045 20.792931 -8.411034 -0.366442 -7.873739 12.552834 0.029927 1.997432 1.968308 0.137534 0.516841 0.000000 0.000000 0.000000 1.969293 0.137244 0.504490 -2.632678 -1.499243 6.464225 -9.146086 -5.896664 12.390178 -0.000000 -0.000001 0.000000 0.018044 1.473362 2.519532 0.000000 0.000000 0.000000 -14.533396 -21.770658 -76.318034 0.000032 -59.577500 0.000044 40.883299 6.437291 34.494846 -0.145092 6.427517 -4.991484 8.024432 23.209369 -2.419331 -4.670990 -16.765060 5.751544 -0.000003 -0.000006 -0.000001 0.285090 -2.807144 6.661417 0.000019 0.021058 -0.174545 0.001603 -0.148894 1.233998 0.000000 0.000001 0.000000 -0.117549 1.026481 5.161723 0.738526 3.107319 -26.733038 0.073518 1.005621 -8.363525 -0.000000 0.000000 -0.000002 0.086063 2.501571 -1.938951 0.156402 1.462162 -12.210808 0.157010 1.464880 -12.234115 -0.000002 0.000000 -0.000001 -1.109674 2.654879 17.113406 0.336097 -1.930871 -18.404959 0.028753 0.629883 -5.226830 -0.000003 -0.000001 -0.000000 0.067627 -7.849591 3.903288 0.000000 0.000000 0.000000 -15.251855 20.145865 76.499416 0.000044 69.323606 -0.000040 39.018921 -13.327057 0.688674 -6.104318 9.453202 -15.363583 9.730272 -6.659570 2.595238 -9.120270 5.238829 -4.291266 0.000001 -0.000001 -0.000001 0.433513 3.056599 -9.954229 -0.000002 0.000001 0.000072 0.060986 0.920798 -7.578525 -0.000000 -0.000001 -0.000000 1.269600 5.593546 -15.009795 0.010859 -0.389187 3.195200 0.069922 -0.985548 8.115044 0.000004 0.000000 -0.000001 0.391931 2.848738 -9.807202 0.010025 -0.373994 3.070510 0.149062 -1.434919 11.861269 0.000003 -0.000001 0.000002 -1.500288 -3.151765 -19.487013 -0.000008 -0.000007 -0.000025 0.101513 -1.186173 9.782301 -0.000002 0.000001 -0.000001 -70.248987 -7.401966 11.969694 86.335387 -4.722631 2.191969 -7.986928 0.627265 -4.186620 -2.887774 -0.000001 0.000001 -0.000000 0.000001 -0.000000 -63.096994 -8.237694 -11.415375 82.064655 -2.278189 2.391068 -12.606294 -0.429892 1.487632 1.132358 0.000002 -0.000001 -0.000001 0.000003 -0.000000 
